<mxfile host="app.diagrams.net" agent="Mozilla/5.0 (Windows NT 10.0; Win64; x64) AppleWebKit/537.36 (KHTML, like Gecko) Chrome/130.0.0.0 Safari/537.36" version="24.8.3">
  <diagram id="C5RBs43oDa-KdzZeNtuy" name="Page-1">
    <mxGraphModel grid="1" page="1" gridSize="10" guides="1" tooltips="1" connect="1" arrows="1" fold="1" pageScale="1" pageWidth="827" pageHeight="1169" math="0" shadow="0">
      <root>
        <mxCell id="WIyWlLk6GJQsqaUBKTNV-0" />
        <mxCell id="WIyWlLk6GJQsqaUBKTNV-1" parent="WIyWlLk6GJQsqaUBKTNV-0" />
        <mxCell id="-ubR7wil35nWuLSY12Px-0" value="Curso" style="swimlane;fontStyle=2;align=center;verticalAlign=top;childLayout=stackLayout;horizontal=1;startSize=26;horizontalStack=0;resizeParent=1;resizeLast=0;collapsible=1;marginBottom=0;rounded=0;shadow=0;strokeWidth=1;" vertex="1" parent="WIyWlLk6GJQsqaUBKTNV-1">
          <mxGeometry x="1070" y="40" width="220" height="138" as="geometry">
            <mxRectangle x="230" y="140" width="160" height="26" as="alternateBounds" />
          </mxGeometry>
        </mxCell>
        <mxCell id="-ubR7wil35nWuLSY12Px-1" value="cod_curso : 1" style="text;align=left;verticalAlign=top;spacingLeft=4;spacingRight=4;overflow=hidden;rotatable=0;points=[[0,0.5],[1,0.5]];portConstraint=eastwest;" vertex="1" parent="-ubR7wil35nWuLSY12Px-0">
          <mxGeometry y="26" width="220" height="26" as="geometry" />
        </mxCell>
        <mxCell id="-ubR7wil35nWuLSY12Px-2" value="sigla_curso : DS" style="text;align=left;verticalAlign=top;spacingLeft=4;spacingRight=4;overflow=hidden;rotatable=0;points=[[0,0.5],[1,0.5]];portConstraint=eastwest;rounded=0;shadow=0;html=0;" vertex="1" parent="-ubR7wil35nWuLSY12Px-0">
          <mxGeometry y="52" width="220" height="26" as="geometry" />
        </mxCell>
        <mxCell id="-ubR7wil35nWuLSY12Px-3" value="nome_curso : Desenvolvimento de Sistemas" style="text;align=left;verticalAlign=top;spacingLeft=4;spacingRight=4;overflow=hidden;rotatable=0;points=[[0,0.5],[1,0.5]];portConstraint=eastwest;rounded=0;shadow=0;html=0;" vertex="1" parent="-ubR7wil35nWuLSY12Px-0">
          <mxGeometry y="78" width="220" height="26" as="geometry" />
        </mxCell>
        <mxCell id="-ubR7wil35nWuLSY12Px-4" value="" style="line;html=1;strokeWidth=1;align=left;verticalAlign=middle;spacingTop=-1;spacingLeft=3;spacingRight=3;rotatable=0;labelPosition=right;points=[];portConstraint=eastwest;" vertex="1" parent="-ubR7wil35nWuLSY12Px-0">
          <mxGeometry y="104" width="220" height="8" as="geometry" />
        </mxCell>
        <mxCell id="-ubR7wil35nWuLSY12Px-5" value="Responsavel" style="swimlane;fontStyle=0;align=center;verticalAlign=top;childLayout=stackLayout;horizontal=1;startSize=26;horizontalStack=0;resizeParent=1;resizeLast=0;collapsible=1;marginBottom=0;rounded=0;shadow=0;strokeWidth=1;" vertex="1" parent="WIyWlLk6GJQsqaUBKTNV-1">
          <mxGeometry x="1140" y="270" width="160" height="230" as="geometry">
            <mxRectangle x="130" y="380" width="160" height="26" as="alternateBounds" />
          </mxGeometry>
        </mxCell>
        <mxCell id="-ubR7wil35nWuLSY12Px-6" value="cod_resp : 4" style="text;align=left;verticalAlign=top;spacingLeft=4;spacingRight=4;overflow=hidden;rotatable=0;points=[[0,0.5],[1,0.5]];portConstraint=eastwest;" vertex="1" parent="-ubR7wil35nWuLSY12Px-5">
          <mxGeometry y="26" width="160" height="26" as="geometry" />
        </mxCell>
        <mxCell id="-ubR7wil35nWuLSY12Px-7" value="nome_resp : Cleverson" style="text;align=left;verticalAlign=top;spacingLeft=4;spacingRight=4;overflow=hidden;rotatable=0;points=[[0,0.5],[1,0.5]];portConstraint=eastwest;rounded=0;shadow=0;html=0;" vertex="1" parent="-ubR7wil35nWuLSY12Px-5">
          <mxGeometry y="52" width="160" height="26" as="geometry" />
        </mxCell>
        <mxCell id="-ubR7wil35nWuLSY12Px-8" value="cpf :&amp;nbsp;&lt;span id=&quot;docs-internal-guid-e2913ec7-7fff-05ef-9a30-2648a3ac69ba&quot;&gt;&lt;span style=&quot;font-size: 10.5pt; font-family: Roboto, sans-serif; color: rgb(60, 64, 67); background-color: transparent; font-variant-numeric: normal; font-variant-east-asian: normal; font-variant-alternates: normal; font-variant-position: normal; vertical-align: baseline; white-space-collapse: preserve;&quot;&gt;89655266654&lt;/span&gt;&lt;/span&gt;" style="text;html=1;align=left;verticalAlign=middle;whiteSpace=wrap;rounded=0;" vertex="1" parent="-ubR7wil35nWuLSY12Px-5">
          <mxGeometry y="78" width="160" height="30" as="geometry" />
        </mxCell>
        <mxCell id="-ubR7wil35nWuLSY12Px-9" value="rg :&amp;nbsp;&lt;span id=&quot;docs-internal-guid-e87bf9b8-7fff-3304-a32f-6e0678f2c136&quot;&gt;&lt;span style=&quot;font-size: 10.5pt; font-family: Roboto, sans-serif; color: rgb(60, 64, 67); background-color: transparent; font-variant-numeric: normal; font-variant-east-asian: normal; font-variant-alternates: normal; font-variant-position: normal; vertical-align: baseline; white-space-collapse: preserve;&quot;&gt;999853277&lt;/span&gt;&lt;/span&gt;" style="text;html=1;align=left;verticalAlign=middle;whiteSpace=wrap;rounded=0;" vertex="1" parent="-ubR7wil35nWuLSY12Px-5">
          <mxGeometry y="108" width="160" height="30" as="geometry" />
        </mxCell>
        <mxCell id="-ubR7wil35nWuLSY12Px-10" value="parentesco : pai" style="text;html=1;align=left;verticalAlign=middle;whiteSpace=wrap;rounded=0;" vertex="1" parent="-ubR7wil35nWuLSY12Px-5">
          <mxGeometry y="138" width="160" height="30" as="geometry" />
        </mxCell>
        <mxCell id="-ubR7wil35nWuLSY12Px-11" value="telefone :&amp;nbsp;&lt;span id=&quot;docs-internal-guid-41c869f1-7fff-7870-a842-e25b5c2a7927&quot;&gt;&lt;span style=&quot;font-size: 10.5pt; font-family: Roboto, sans-serif; color: rgb(60, 64, 67); background-color: transparent; font-variant-numeric: normal; font-variant-east-asian: normal; font-variant-alternates: normal; font-variant-position: normal; vertical-align: baseline; white-space-collapse: preserve;&quot;&gt;34955555521&lt;/span&gt;&lt;/span&gt;" style="text;html=1;align=left;verticalAlign=middle;whiteSpace=wrap;rounded=0;" vertex="1" parent="-ubR7wil35nWuLSY12Px-5">
          <mxGeometry y="168" width="160" height="30" as="geometry" />
        </mxCell>
        <mxCell id="-ubR7wil35nWuLSY12Px-12" value="email :&amp;nbsp;&lt;span id=&quot;docs-internal-guid-482f982d-7fff-ad9d-625d-1dea984aafcc&quot;&gt;&lt;a href=&quot;https://mail.google.com/mail/?view=cm&amp;amp;fs=1&amp;amp;to=cleverson%40gmail.com&amp;amp;authuser=0&quot; style=&quot;text-decoration-line: none;&quot;&gt;&lt;span style=&quot;font-size: 10.5pt; font-family: Roboto, sans-serif; color: rgb(41, 98, 255); background-color: transparent; font-variant-numeric: normal; font-variant-east-asian: normal; font-variant-alternates: normal; font-variant-position: normal; vertical-align: baseline; white-space-collapse: preserve;&quot;&gt;cleverson@gmail.com&lt;/span&gt;&lt;/a&gt;&lt;/span&gt;" style="text;html=1;align=left;verticalAlign=middle;whiteSpace=wrap;rounded=0;" vertex="1" parent="-ubR7wil35nWuLSY12Px-5">
          <mxGeometry y="198" width="160" height="30" as="geometry" />
        </mxCell>
        <mxCell id="-ubR7wil35nWuLSY12Px-13" value="Serie" style="swimlane;fontStyle=0;align=center;verticalAlign=top;childLayout=stackLayout;horizontal=1;startSize=26;horizontalStack=0;resizeParent=1;resizeLast=0;collapsible=1;marginBottom=0;rounded=0;shadow=0;strokeWidth=1;" vertex="1" parent="WIyWlLk6GJQsqaUBKTNV-1">
          <mxGeometry x="1380" y="44" width="160" height="130" as="geometry">
            <mxRectangle x="340" y="380" width="170" height="26" as="alternateBounds" />
          </mxGeometry>
        </mxCell>
        <mxCell id="-ubR7wil35nWuLSY12Px-14" value="cod_serie : 2" style="text;align=left;verticalAlign=top;spacingLeft=4;spacingRight=4;overflow=hidden;rotatable=0;points=[[0,0.5],[1,0.5]];portConstraint=eastwest;strokeWidth=1;" vertex="1" parent="-ubR7wil35nWuLSY12Px-13">
          <mxGeometry y="26" width="160" height="26" as="geometry" />
        </mxCell>
        <mxCell id="-ubR7wil35nWuLSY12Px-15" value="ano_serie : 1" style="text;html=1;align=left;verticalAlign=middle;whiteSpace=wrap;rounded=0;strokeWidth=1;" vertex="1" parent="-ubR7wil35nWuLSY12Px-13">
          <mxGeometry y="52" width="160" height="30" as="geometry" />
        </mxCell>
        <mxCell id="-ubR7wil35nWuLSY12Px-16" value="turma : DS" style="text;html=1;align=left;verticalAlign=middle;whiteSpace=wrap;rounded=0;strokeWidth=1;" vertex="1" parent="-ubR7wil35nWuLSY12Px-13">
          <mxGeometry y="82" width="160" height="30" as="geometry" />
        </mxCell>
        <mxCell id="-ubR7wil35nWuLSY12Px-17" value="Aluno" style="swimlane;fontStyle=0;align=center;verticalAlign=top;childLayout=stackLayout;horizontal=1;startSize=26;horizontalStack=0;resizeParent=1;resizeLast=0;collapsible=1;marginBottom=0;rounded=0;shadow=0;strokeWidth=1;" vertex="1" parent="WIyWlLk6GJQsqaUBKTNV-1">
          <mxGeometry x="1470" y="255" width="170" height="260" as="geometry">
            <mxRectangle x="550" y="140" width="160" height="26" as="alternateBounds" />
          </mxGeometry>
        </mxCell>
        <mxCell id="-ubR7wil35nWuLSY12Px-18" value="cod_mat : 4" style="text;align=left;verticalAlign=top;spacingLeft=4;spacingRight=4;overflow=hidden;rotatable=0;points=[[0,0.5],[1,0.5]];portConstraint=eastwest;" vertex="1" parent="-ubR7wil35nWuLSY12Px-17">
          <mxGeometry y="26" width="170" height="26" as="geometry" />
        </mxCell>
        <mxCell id="-ubR7wil35nWuLSY12Px-19" value="nome_aluno : Vitor Henrique" style="text;align=left;verticalAlign=top;spacingLeft=4;spacingRight=4;overflow=hidden;rotatable=0;points=[[0,0.5],[1,0.5]];portConstraint=eastwest;rounded=0;shadow=0;html=0;" vertex="1" parent="-ubR7wil35nWuLSY12Px-17">
          <mxGeometry y="52" width="170" height="26" as="geometry" />
        </mxCell>
        <mxCell id="-ubR7wil35nWuLSY12Px-20" value="cpf : 44455566677" style="text;align=left;verticalAlign=top;spacingLeft=4;spacingRight=4;overflow=hidden;rotatable=0;points=[[0,0.5],[1,0.5]];portConstraint=eastwest;rounded=0;shadow=0;html=0;" vertex="1" parent="-ubR7wil35nWuLSY12Px-17">
          <mxGeometry y="78" width="170" height="26" as="geometry" />
        </mxCell>
        <mxCell id="-ubR7wil35nWuLSY12Px-21" value="rg : 222333444" style="text;align=left;verticalAlign=top;spacingLeft=4;spacingRight=4;overflow=hidden;rotatable=0;points=[[0,0.5],[1,0.5]];portConstraint=eastwest;rounded=0;shadow=0;html=0;" vertex="1" parent="-ubR7wil35nWuLSY12Px-17">
          <mxGeometry y="104" width="170" height="26" as="geometry" />
        </mxCell>
        <mxCell id="-ubR7wil35nWuLSY12Px-22" value="telefone char : 34955556666" style="text;align=left;verticalAlign=top;spacingLeft=4;spacingRight=4;overflow=hidden;rotatable=0;points=[[0,0.5],[1,0.5]];portConstraint=eastwest;rounded=0;shadow=0;html=0;" vertex="1" parent="-ubR7wil35nWuLSY12Px-17">
          <mxGeometry y="130" width="170" height="26" as="geometry" />
        </mxCell>
        <mxCell id="-ubR7wil35nWuLSY12Px-23" value="data_nasc : 2&lt;span id=&quot;docs-internal-guid-aabd25e5-7fff-96e7-56b6-550e9f12fb98&quot;&gt;&lt;span style=&quot;font-size: 10.5pt; font-family: Roboto, sans-serif; color: rgb(60, 64, 67); background-color: transparent; font-variant-numeric: normal; font-variant-east-asian: normal; font-variant-alternates: normal; font-variant-position: normal; vertical-align: baseline; white-space-collapse: preserve;&quot;&gt;007-09-24&lt;/span&gt;&lt;/span&gt;" style="text;html=1;align=left;verticalAlign=middle;whiteSpace=wrap;rounded=0;" vertex="1" parent="-ubR7wil35nWuLSY12Px-17">
          <mxGeometry y="156" width="170" height="30" as="geometry" />
        </mxCell>
        <mxCell id="-ubR7wil35nWuLSY12Px-24" value="sexo : M" style="text;html=1;align=left;verticalAlign=middle;whiteSpace=wrap;rounded=0;" vertex="1" parent="-ubR7wil35nWuLSY12Px-17">
          <mxGeometry y="186" width="170" height="30" as="geometry" />
        </mxCell>
        <mxCell id="-ubR7wil35nWuLSY12Px-25" value="email :&amp;nbsp;&lt;span id=&quot;docs-internal-guid-013d1e83-7fff-f128-6c4f-c59a29140aed&quot;&gt;&lt;span style=&quot;font-size: 10.5pt; font-family: Roboto, sans-serif; color: rgb(60, 64, 67); background-color: transparent; font-variant-numeric: normal; font-variant-east-asian: normal; font-variant-alternates: normal; font-variant-position: normal; vertical-align: baseline; white-space-collapse: preserve;&quot;&gt;&#39;&lt;/span&gt;&lt;a href=&quot;https://mail.google.com/mail/?view=cm&amp;amp;fs=1&amp;amp;to=vitorhenrique%40estudante.iftm.edu.br&amp;amp;authuser=0&quot; style=&quot;text-decoration-line: none;&quot;&gt;&lt;span style=&quot;font-size: 10.5pt; font-family: Roboto, sans-serif; color: rgb(41, 98, 255); background-color: transparent; font-variant-numeric: normal; font-variant-east-asian: normal; font-variant-alternates: normal; font-variant-position: normal; vertical-align: baseline; white-space-collapse: preserve;&quot;&gt;vitorhenrique@estudante.iftm.edu.br&lt;/span&gt;&lt;/a&gt;&lt;/span&gt;" style="text;html=1;align=left;verticalAlign=middle;whiteSpace=wrap;rounded=0;" vertex="1" parent="-ubR7wil35nWuLSY12Px-17">
          <mxGeometry y="216" width="170" height="30" as="geometry" />
        </mxCell>
        <mxCell id="-ubR7wil35nWuLSY12Px-26" value="Professor" style="swimlane;fontStyle=0;childLayout=stackLayout;horizontal=1;startSize=30;horizontalStack=0;resizeParent=1;resizeParentMax=0;resizeLast=0;collapsible=1;marginBottom=0;whiteSpace=wrap;html=1;strokeWidth=1;align=center;" vertex="1" parent="WIyWlLk6GJQsqaUBKTNV-1">
          <mxGeometry x="1840" y="-30" width="170" height="170" as="geometry" />
        </mxCell>
        <mxCell id="-ubR7wil35nWuLSY12Px-27" value="cod_id : 1" style="text;strokeColor=none;fillColor=none;align=left;verticalAlign=middle;spacingLeft=4;spacingRight=4;overflow=hidden;points=[[0,0.5],[1,0.5]];portConstraint=eastwest;rotatable=0;whiteSpace=wrap;html=1;strokeWidth=1;" vertex="1" parent="-ubR7wil35nWuLSY12Px-26">
          <mxGeometry y="30" width="170" height="30" as="geometry" />
        </mxCell>
        <mxCell id="-ubR7wil35nWuLSY12Px-28" value="nome_prof :&amp;nbsp;&lt;span id=&quot;docs-internal-guid-63ceec31-7fff-5620-a42f-36e1b01b4123&quot;&gt;&lt;span style=&quot;font-size: 10.5pt; font-family: Roboto, sans-serif; color: rgb(60, 64, 67); background-color: transparent; font-variant-numeric: normal; font-variant-east-asian: normal; font-variant-alternates: normal; font-variant-position: normal; vertical-align: baseline; white-space-collapse: preserve;&quot;&gt;Cricia Zilda&lt;/span&gt;&lt;/span&gt;" style="text;strokeColor=none;fillColor=none;align=left;verticalAlign=middle;spacingLeft=4;spacingRight=4;overflow=hidden;points=[[0,0.5],[1,0.5]];portConstraint=eastwest;rotatable=0;whiteSpace=wrap;html=1;strokeWidth=1;" vertex="1" parent="-ubR7wil35nWuLSY12Px-26">
          <mxGeometry y="60" width="170" height="30" as="geometry" />
        </mxCell>
        <mxCell id="-ubR7wil35nWuLSY12Px-29" value="cpf :&amp;nbsp;&lt;span id=&quot;docs-internal-guid-81cac406-7fff-88d8-aa7a-266386c777b3&quot;&gt;&lt;span style=&quot;font-size: 10.5pt; font-family: Roboto, sans-serif; color: rgb(60, 64, 67); background-color: transparent; font-variant-numeric: normal; font-variant-east-asian: normal; font-variant-alternates: normal; font-variant-position: normal; vertical-align: baseline; white-space-collapse: preserve;&quot;&gt;22233344411&lt;/span&gt;&lt;/span&gt;" style="text;strokeColor=none;fillColor=none;align=left;verticalAlign=middle;spacingLeft=4;spacingRight=4;overflow=hidden;points=[[0,0.5],[1,0.5]];portConstraint=eastwest;rotatable=0;whiteSpace=wrap;html=1;strokeWidth=1;" vertex="1" parent="-ubR7wil35nWuLSY12Px-26">
          <mxGeometry y="90" width="170" height="20" as="geometry" />
        </mxCell>
        <mxCell id="-ubR7wil35nWuLSY12Px-30" value="sexo : F" style="text;html=1;align=left;verticalAlign=middle;whiteSpace=wrap;rounded=0;strokeWidth=1;" vertex="1" parent="-ubR7wil35nWuLSY12Px-26">
          <mxGeometry y="110" width="170" height="30" as="geometry" />
        </mxCell>
        <mxCell id="-ubR7wil35nWuLSY12Px-31" value="area_atuacao :&amp;nbsp;&lt;span id=&quot;docs-internal-guid-c9296ff3-7fff-f3ce-133f-c1b24a598e95&quot;&gt;&lt;span style=&quot;font-size: 10.5pt; font-family: Roboto, sans-serif; color: rgb(60, 64, 67); background-color: transparent; font-variant-numeric: normal; font-variant-east-asian: normal; font-variant-alternates: normal; font-variant-position: normal; vertical-align: baseline; white-space-collapse: preserve;&quot;&gt;Banco de Dados&lt;/span&gt;&lt;/span&gt;" style="text;html=1;align=left;verticalAlign=middle;whiteSpace=wrap;rounded=0;strokeWidth=1;" vertex="1" parent="-ubR7wil35nWuLSY12Px-26">
          <mxGeometry y="140" width="170" height="30" as="geometry" />
        </mxCell>
        <mxCell id="-ubR7wil35nWuLSY12Px-32" value="Funcionario" style="swimlane;fontStyle=0;childLayout=stackLayout;horizontal=1;startSize=30;horizontalStack=0;resizeParent=1;resizeParentMax=0;resizeLast=0;collapsible=1;marginBottom=0;whiteSpace=wrap;html=1;" vertex="1" parent="WIyWlLk6GJQsqaUBKTNV-1">
          <mxGeometry x="1740" y="420" width="140" height="120" as="geometry" />
        </mxCell>
        <mxCell id="-ubR7wil35nWuLSY12Px-33" value="cod_func : 1" style="text;strokeColor=none;fillColor=none;align=left;verticalAlign=middle;spacingLeft=4;spacingRight=4;overflow=hidden;points=[[0,0.5],[1,0.5]];portConstraint=eastwest;rotatable=0;whiteSpace=wrap;html=1;" vertex="1" parent="-ubR7wil35nWuLSY12Px-32">
          <mxGeometry y="30" width="140" height="30" as="geometry" />
        </mxCell>
        <mxCell id="-ubR7wil35nWuLSY12Px-34" value="nome_func :&amp;nbsp;&lt;span id=&quot;docs-internal-guid-8477ebc8-7fff-a6df-6a90-e94fce639234&quot;&gt;&lt;span style=&quot;font-size: 10.5pt; font-family: Roboto, sans-serif; color: rgb(60, 64, 67); background-color: transparent; font-variant-numeric: normal; font-variant-east-asian: normal; font-variant-alternates: normal; font-variant-position: normal; vertical-align: baseline; white-space-collapse: preserve;&quot;&gt;Jairo Rodrigues&lt;/span&gt;&lt;/span&gt;" style="text;strokeColor=none;fillColor=none;align=left;verticalAlign=middle;spacingLeft=4;spacingRight=4;overflow=hidden;points=[[0,0.5],[1,0.5]];portConstraint=eastwest;rotatable=0;whiteSpace=wrap;html=1;" vertex="1" parent="-ubR7wil35nWuLSY12Px-32">
          <mxGeometry y="60" width="140" height="30" as="geometry" />
        </mxCell>
        <mxCell id="-ubR7wil35nWuLSY12Px-35" value="email_func :&amp;nbsp;&lt;span id=&quot;docs-internal-guid-6d7368a0-7fff-e040-c77f-5c5e2ad401bf&quot;&gt;&lt;a href=&quot;https://mail.google.com/mail/?view=cm&amp;amp;fs=1&amp;amp;to=jairo.filho%40estudante.iftm.edu.br&amp;amp;authuser=0&quot; style=&quot;text-decoration-line: none;&quot;&gt;&lt;span style=&quot;font-size: 10.5pt; font-family: Roboto, sans-serif; color: rgb(41, 98, 255); background-color: transparent; font-variant-numeric: normal; font-variant-east-asian: normal; font-variant-alternates: normal; font-variant-position: normal; vertical-align: baseline; white-space-collapse: preserve;&quot;&gt;jairo.filho@estudante.iftm.edu.b&lt;/span&gt;&lt;/a&gt;r&lt;/span&gt;" style="text;strokeColor=none;fillColor=none;align=left;verticalAlign=middle;spacingLeft=4;spacingRight=4;overflow=hidden;points=[[0,0.5],[1,0.5]];portConstraint=eastwest;rotatable=0;whiteSpace=wrap;html=1;" vertex="1" parent="-ubR7wil35nWuLSY12Px-32">
          <mxGeometry y="90" width="140" height="30" as="geometry" />
        </mxCell>
        <mxCell id="-ubR7wil35nWuLSY12Px-36" value="Ocorrencia" style="swimlane;fontStyle=0;childLayout=stackLayout;horizontal=1;startSize=30;horizontalStack=0;resizeParent=1;resizeParentMax=0;resizeLast=0;collapsible=1;marginBottom=0;whiteSpace=wrap;html=1;" vertex="1" parent="WIyWlLk6GJQsqaUBKTNV-1">
          <mxGeometry x="1730" y="204" width="140" height="150" as="geometry" />
        </mxCell>
        <mxCell id="-ubR7wil35nWuLSY12Px-37" value="cod_ocorrencia :&amp;nbsp;&lt;span id=&quot;docs-internal-guid-7a381f65-7fff-5528-a652-54e393836a51&quot;&gt;&lt;span style=&quot;font-size: 10.5pt; font-family: Roboto, sans-serif; color: rgb(60, 64, 67); background-color: transparent; font-variant-numeric: normal; font-variant-east-asian: normal; font-variant-alternates: normal; font-variant-position: normal; vertical-align: baseline; white-space-collapse: preserve;&quot;&gt;404&lt;/span&gt;&lt;/span&gt;" style="text;strokeColor=none;fillColor=none;align=left;verticalAlign=middle;spacingLeft=4;spacingRight=4;overflow=hidden;points=[[0,0.5],[1,0.5]];portConstraint=eastwest;rotatable=0;whiteSpace=wrap;html=1;" vertex="1" parent="-ubR7wil35nWuLSY12Px-36">
          <mxGeometry y="30" width="140" height="30" as="geometry" />
        </mxCell>
        <mxCell id="-ubR7wil35nWuLSY12Px-38" value="data_ocorrencia :&amp;nbsp;&lt;span id=&quot;docs-internal-guid-d277f529-7fff-a1bc-1b78-6162b5ad9424&quot;&gt;&lt;span style=&quot;font-size: 10.5pt; font-family: Roboto, sans-serif; color: rgb(60, 64, 67); background-color: transparent; font-variant-numeric: normal; font-variant-east-asian: normal; font-variant-alternates: normal; font-variant-position: normal; vertical-align: baseline; white-space-collapse: preserve;&quot;&gt;2024-08-19&lt;/span&gt;&lt;/span&gt;" style="text;strokeColor=none;fillColor=none;align=left;verticalAlign=middle;spacingLeft=4;spacingRight=4;overflow=hidden;points=[[0,0.5],[1,0.5]];portConstraint=eastwest;rotatable=0;whiteSpace=wrap;html=1;" vertex="1" parent="-ubR7wil35nWuLSY12Px-36">
          <mxGeometry y="60" width="140" height="30" as="geometry" />
        </mxCell>
        <mxCell id="-ubR7wil35nWuLSY12Px-39" value="horario :&amp;nbsp;&lt;span id=&quot;docs-internal-guid-ce98c67a-7fff-d71c-dc89-a1af91b3d04a&quot;&gt;&lt;span style=&quot;font-size: 10.5pt; font-family: Roboto, sans-serif; color: rgb(60, 64, 67); background-color: transparent; font-variant-numeric: normal; font-variant-east-asian: normal; font-variant-alternates: normal; font-variant-position: normal; vertical-align: baseline; white-space-collapse: preserve;&quot;&gt;15:20:52&lt;/span&gt;&lt;/span&gt;" style="text;html=1;align=left;verticalAlign=middle;whiteSpace=wrap;rounded=0;" vertex="1" parent="-ubR7wil35nWuLSY12Px-36">
          <mxGeometry y="90" width="140" height="30" as="geometry" />
        </mxCell>
        <mxCell id="-ubR7wil35nWuLSY12Px-40" value="descricao :&amp;nbsp;&lt;span id=&quot;docs-internal-guid-8ecb4ff5-7fff-0bdd-d8b8-532d181df6a9&quot;&gt;&lt;span style=&quot;font-size: 10.5pt; font-family: Roboto, sans-serif; color: rgb(60, 64, 67); background-color: transparent; font-variant-numeric: normal; font-variant-east-asian: normal; font-variant-alternates: normal; font-variant-position: normal; vertical-align: baseline; white-space-collapse: preserve;&quot;&gt;assaltar outro aluno&lt;/span&gt;&lt;/span&gt;" style="text;html=1;align=left;verticalAlign=middle;whiteSpace=wrap;rounded=0;" vertex="1" parent="-ubR7wil35nWuLSY12Px-36">
          <mxGeometry y="120" width="140" height="30" as="geometry" />
        </mxCell>
        <mxCell id="-ubR7wil35nWuLSY12Px-41" value="Penalidade" style="swimlane;fontStyle=0;childLayout=stackLayout;horizontal=1;startSize=30;horizontalStack=0;resizeParent=1;resizeParentMax=0;resizeLast=0;collapsible=1;marginBottom=0;whiteSpace=wrap;html=1;" vertex="1" parent="WIyWlLk6GJQsqaUBKTNV-1">
          <mxGeometry x="1970" y="204" width="140" height="150" as="geometry" />
        </mxCell>
        <mxCell id="-ubR7wil35nWuLSY12Px-42" value="cod_penal : 3" style="text;strokeColor=none;fillColor=none;align=left;verticalAlign=middle;spacingLeft=4;spacingRight=4;overflow=hidden;points=[[0,0.5],[1,0.5]];portConstraint=eastwest;rotatable=0;whiteSpace=wrap;html=1;" vertex="1" parent="-ubR7wil35nWuLSY12Px-41">
          <mxGeometry y="30" width="140" height="30" as="geometry" />
        </mxCell>
        <mxCell id="-ubR7wil35nWuLSY12Px-43" value="duracao :&amp;nbsp;&lt;span id=&quot;docs-internal-guid-f1c904e9-7fff-66e6-4319-ebf8a52bd523&quot;&gt;&lt;span style=&quot;font-size: 10.5pt; font-family: Roboto, sans-serif; color: rgb(60, 64, 67); background-color: transparent; font-variant-numeric: normal; font-variant-east-asian: normal; font-variant-alternates: normal; font-variant-position: normal; vertical-align: baseline; white-space-collapse: preserve;&quot;&gt;N/A&lt;/span&gt;&lt;/span&gt;" style="text;strokeColor=none;fillColor=none;align=left;verticalAlign=middle;spacingLeft=4;spacingRight=4;overflow=hidden;points=[[0,0.5],[1,0.5]];portConstraint=eastwest;rotatable=0;whiteSpace=wrap;html=1;" vertex="1" parent="-ubR7wil35nWuLSY12Px-41">
          <mxGeometry y="60" width="140" height="30" as="geometry" />
        </mxCell>
        <mxCell id="-ubR7wil35nWuLSY12Px-44" value="tipo_penal :&amp;nbsp;&lt;span id=&quot;docs-internal-guid-3ee9e247-7fff-9fa1-4d06-35ddad790324&quot;&gt;&lt;span style=&quot;font-size: 10.5pt; font-family: Roboto, sans-serif; color: rgb(60, 64, 67); background-color: transparent; font-variant-numeric: normal; font-variant-east-asian: normal; font-variant-alternates: normal; font-variant-position: normal; vertical-align: baseline; white-space-collapse: preserve;&quot;&gt;advertência escrita&lt;/span&gt;&lt;/span&gt;" style="text;strokeColor=none;fillColor=none;align=left;verticalAlign=middle;spacingLeft=4;spacingRight=4;overflow=hidden;points=[[0,0.5],[1,0.5]];portConstraint=eastwest;rotatable=0;whiteSpace=wrap;html=1;" vertex="1" parent="-ubR7wil35nWuLSY12Px-41">
          <mxGeometry y="90" width="140" height="30" as="geometry" />
        </mxCell>
        <mxCell id="-ubR7wil35nWuLSY12Px-45" value="data_aplicacao :&amp;nbsp;&lt;span style=&quot;color: rgb(60, 64, 67); font-family: Roboto, sans-serif; font-size: 14px; white-space-collapse: preserve;&quot;&gt;2024-08-19&lt;/span&gt;" style="text;html=1;align=left;verticalAlign=middle;whiteSpace=wrap;rounded=0;" vertex="1" parent="-ubR7wil35nWuLSY12Px-41">
          <mxGeometry y="120" width="140" height="30" as="geometry" />
        </mxCell>
        <mxCell id="-ubR7wil35nWuLSY12Px-46" value="" style="endArrow=none;html=1;rounded=0;" edge="1" parent="WIyWlLk6GJQsqaUBKTNV-1" source="-ubR7wil35nWuLSY12Px-0" target="-ubR7wil35nWuLSY12Px-13">
          <mxGeometry width="50" height="50" relative="1" as="geometry">
            <mxPoint x="1420" y="510" as="sourcePoint" />
            <mxPoint x="1470" y="460" as="targetPoint" />
            <Array as="points" />
          </mxGeometry>
        </mxCell>
        <mxCell id="-ubR7wil35nWuLSY12Px-47" value="1" style="text;html=1;align=center;verticalAlign=middle;whiteSpace=wrap;rounded=0;" vertex="1" parent="WIyWlLk6GJQsqaUBKTNV-1">
          <mxGeometry x="1280" y="84" width="60" height="30" as="geometry" />
        </mxCell>
        <mxCell id="-ubR7wil35nWuLSY12Px-48" value="1..*" style="text;html=1;align=center;verticalAlign=middle;whiteSpace=wrap;rounded=0;" vertex="1" parent="WIyWlLk6GJQsqaUBKTNV-1">
          <mxGeometry x="1330" y="84" width="60" height="30" as="geometry" />
        </mxCell>
        <mxCell id="-ubR7wil35nWuLSY12Px-49" value="" style="endArrow=none;html=1;rounded=0;" edge="1" parent="WIyWlLk6GJQsqaUBKTNV-1" source="-ubR7wil35nWuLSY12Px-5" target="-ubR7wil35nWuLSY12Px-17">
          <mxGeometry width="50" height="50" relative="1" as="geometry">
            <mxPoint x="1390" y="270" as="sourcePoint" />
            <mxPoint x="1440" y="220" as="targetPoint" />
          </mxGeometry>
        </mxCell>
        <mxCell id="-ubR7wil35nWuLSY12Px-50" value="1..*" style="text;html=1;align=center;verticalAlign=middle;whiteSpace=wrap;rounded=0;" vertex="1" parent="WIyWlLk6GJQsqaUBKTNV-1">
          <mxGeometry x="1410" y="360" width="60" height="30" as="geometry" />
        </mxCell>
        <mxCell id="-ubR7wil35nWuLSY12Px-51" value="1" style="text;html=1;align=center;verticalAlign=middle;whiteSpace=wrap;rounded=0;" vertex="1" parent="WIyWlLk6GJQsqaUBKTNV-1">
          <mxGeometry x="1300" y="360" width="60" height="30" as="geometry" />
        </mxCell>
        <mxCell id="-ubR7wil35nWuLSY12Px-52" value="" style="endArrow=none;html=1;rounded=0;" edge="1" parent="WIyWlLk6GJQsqaUBKTNV-1" source="-ubR7wil35nWuLSY12Px-17" target="-ubR7wil35nWuLSY12Px-13">
          <mxGeometry width="50" height="50" relative="1" as="geometry">
            <mxPoint x="1550" y="400" as="sourcePoint" />
            <mxPoint x="1600" y="350" as="targetPoint" />
          </mxGeometry>
        </mxCell>
        <mxCell id="-ubR7wil35nWuLSY12Px-53" value="1..*" style="text;html=1;align=center;verticalAlign=middle;whiteSpace=wrap;rounded=0;" vertex="1" parent="WIyWlLk6GJQsqaUBKTNV-1">
          <mxGeometry x="1504" y="225" width="60" height="30" as="geometry" />
        </mxCell>
        <mxCell id="-ubR7wil35nWuLSY12Px-54" value="1" style="text;html=1;align=center;verticalAlign=middle;whiteSpace=wrap;rounded=0;" vertex="1" parent="WIyWlLk6GJQsqaUBKTNV-1">
          <mxGeometry x="1480" y="174" width="60" height="30" as="geometry" />
        </mxCell>
        <mxCell id="-ubR7wil35nWuLSY12Px-55" value="" style="endArrow=none;html=1;rounded=0;" edge="1" parent="WIyWlLk6GJQsqaUBKTNV-1" source="-ubR7wil35nWuLSY12Px-36" target="-ubR7wil35nWuLSY12Px-41">
          <mxGeometry width="50" height="50" relative="1" as="geometry">
            <mxPoint x="1580" y="270" as="sourcePoint" />
            <mxPoint x="1630" y="220" as="targetPoint" />
          </mxGeometry>
        </mxCell>
        <mxCell id="-ubR7wil35nWuLSY12Px-56" value="" style="endArrow=none;html=1;rounded=0;" edge="1" parent="WIyWlLk6GJQsqaUBKTNV-1" source="-ubR7wil35nWuLSY12Px-17" target="-ubR7wil35nWuLSY12Px-36">
          <mxGeometry width="50" height="50" relative="1" as="geometry">
            <mxPoint x="1680" y="300" as="sourcePoint" />
            <mxPoint x="1630" y="220" as="targetPoint" />
          </mxGeometry>
        </mxCell>
        <mxCell id="-ubR7wil35nWuLSY12Px-57" value="1" style="text;html=1;align=center;verticalAlign=middle;whiteSpace=wrap;rounded=0;" vertex="1" parent="WIyWlLk6GJQsqaUBKTNV-1">
          <mxGeometry x="1630" y="310" width="60" height="30" as="geometry" />
        </mxCell>
        <mxCell id="-ubR7wil35nWuLSY12Px-58" value="0..*" style="text;html=1;align=center;verticalAlign=middle;whiteSpace=wrap;rounded=0;" vertex="1" parent="WIyWlLk6GJQsqaUBKTNV-1">
          <mxGeometry x="1690" y="290" width="60" height="30" as="geometry" />
        </mxCell>
        <mxCell id="-ubR7wil35nWuLSY12Px-59" value="1" style="text;html=1;align=center;verticalAlign=middle;whiteSpace=wrap;rounded=0;" vertex="1" parent="WIyWlLk6GJQsqaUBKTNV-1">
          <mxGeometry x="1857" y="255" width="60" height="30" as="geometry" />
        </mxCell>
        <mxCell id="-ubR7wil35nWuLSY12Px-60" value="1..*" style="text;html=1;align=center;verticalAlign=middle;whiteSpace=wrap;rounded=0;" vertex="1" parent="WIyWlLk6GJQsqaUBKTNV-1">
          <mxGeometry x="1930" y="255" width="60" height="30" as="geometry" />
        </mxCell>
        <mxCell id="-ubR7wil35nWuLSY12Px-61" value="" style="endArrow=none;html=1;rounded=0;" edge="1" parent="WIyWlLk6GJQsqaUBKTNV-1" source="-ubR7wil35nWuLSY12Px-32" target="-ubR7wil35nWuLSY12Px-36">
          <mxGeometry width="50" height="50" relative="1" as="geometry">
            <mxPoint x="1920" y="270" as="sourcePoint" />
            <mxPoint x="1970" y="220" as="targetPoint" />
          </mxGeometry>
        </mxCell>
        <mxCell id="-ubR7wil35nWuLSY12Px-62" value="0..*" style="text;html=1;align=center;verticalAlign=middle;whiteSpace=wrap;rounded=0;" vertex="1" parent="WIyWlLk6GJQsqaUBKTNV-1">
          <mxGeometry x="1740" y="350" width="60" height="30" as="geometry" />
        </mxCell>
        <mxCell id="-ubR7wil35nWuLSY12Px-63" value="1" style="text;html=1;align=center;verticalAlign=middle;whiteSpace=wrap;rounded=0;" vertex="1" parent="WIyWlLk6GJQsqaUBKTNV-1">
          <mxGeometry x="1750" y="390" width="60" height="30" as="geometry" />
        </mxCell>
        <mxCell id="-ubR7wil35nWuLSY12Px-64" value="" style="endArrow=none;html=1;rounded=0;" edge="1" parent="WIyWlLk6GJQsqaUBKTNV-1" source="-ubR7wil35nWuLSY12Px-36" target="-ubR7wil35nWuLSY12Px-26">
          <mxGeometry width="50" height="50" relative="1" as="geometry">
            <mxPoint x="1920" y="270" as="sourcePoint" />
            <mxPoint x="1970" y="220" as="targetPoint" />
          </mxGeometry>
        </mxCell>
        <mxCell id="-ubR7wil35nWuLSY12Px-65" value="1..*" style="text;html=1;align=center;verticalAlign=middle;whiteSpace=wrap;rounded=0;" vertex="1" parent="WIyWlLk6GJQsqaUBKTNV-1">
          <mxGeometry x="1797" y="174" width="60" height="30" as="geometry" />
        </mxCell>
        <mxCell id="-ubR7wil35nWuLSY12Px-66" value="1" style="text;html=1;align=center;verticalAlign=middle;whiteSpace=wrap;rounded=0;" vertex="1" parent="WIyWlLk6GJQsqaUBKTNV-1">
          <mxGeometry x="1830" y="140" width="60" height="30" as="geometry" />
        </mxCell>
      </root>
    </mxGraphModel>
  </diagram>
</mxfile>
